<?xml version="1.0" encoding="UTF-8" ?><svg xmlns="http://www.w3.org/2000/svg" viewBox="0 0 200 200"><defs><style>.cls-1{fill:#6bc62a;}.cls-2{fill:#00923d;}.cls-10,.cls-11,.cls-13,.cls-3,.cls-4,.cls-7,.cls-8{fill:none;stroke-miterlimit:10;}.cls-10,.cls-11,.cls-3,.cls-4,.cls-7,.cls-8{stroke:#3a4147;}.cls-3{stroke-width:2.28px;}.cls-4{stroke-width:2.85px;}.cls-5{fill:#728f00;}.cls-6{fill:#3a4147;}.cls-7{stroke-width:3.65px;}.cls-8{stroke-width:3.82px;}.cls-9{fill:#24b964;}.cls-10{stroke-width:4.34px;}.cls-11{stroke-width:3.62px;}.cls-12{fill:#006800;}.cls-13{stroke:#343f46;stroke-width:3.32px;}</style></defs><g id="Leaves_kopie" data-name="Leaves kopie"><path class="cls-1" d="M93.29,163.63c1.76,17.21-5.45,25.88-18.38,25.88-11.92,0-20.34-8.69-18.39-25.88,2-17.44,15.83-36.18,18.39-38.72C77.4,127.45,91.51,146.19,93.29,163.63Z"/><path class="cls-2" d="M197.26,163.63c1.76,17.21-5.45,25.88-18.39,25.88-11.92,0-20.34-8.69-18.39-25.88,2-17.44,15.83-36.18,18.4-38.72C181.37,127.45,195.47,146.19,197.26,163.63Z"/><line class="cls-3" x1="104.89" y1="14.57" x2="109.49" y2="21.45"/><line class="cls-4" x1="104.09" y1="25.82" x2="91.45" y2="18.18"/><polyline class="cls-4" points="99.43 10.68 104.38 26.67 109.49 21.45 125.38 15.36"/><path class="cls-5" d="M129.25,9.77c0-.11,0-.22,0-.34,0-2.63-3.66-4.8-8.22-4.84a12.31,12.31,0,0,0-5.14,1c-.24-1.95-3.06-3.51-6.52-3.54a10.3,10.3,0,0,0-3.29.47,7.19,7.19,0,0,0-5-1.87c-3.32,0-6,1.72-6,3.9a2.84,2.84,0,0,0,.31,1.28c-1.61.86-2.59,1.95-2.6,3.14h0a6.35,6.35,0,0,0-3.9-1.29c-2.74,0-5,1.45-5.18,3.34a8.29,8.29,0,0,0-1.89-.22c-3.5,0-6.36,2-6.38,4.46s2.8,4.54,6.3,4.57h.23c1,1.47,3.66,2.55,6.84,2.58s5.88-1,6.88-2.47a7,7,0,0,0,.92.07c2.86,0,5.19-1.58,5.21-3.57a2.85,2.85,0,0,0-.61-1.73,8.62,8.62,0,0,0,2.66.44A7.93,7.93,0,0,0,108,14a6.81,6.81,0,0,0,.94.17,2.87,2.87,0,0,0-.11.77c0,2.5,2.8,4.55,6.3,4.58a7.14,7.14,0,0,0,5.45-2.14,12.05,12.05,0,0,0,5.75,1.39c4.53,0,8.23-2,8.25-4.6C134.63,12.19,132.39,10.45,129.25,9.77ZM94,11.34h0s0-.07,0-.1l.14.13Z"/><line class="cls-4" x1="104.89" y1="32.72" x2="107.48" y2="31.2"/><polygon class="cls-6" points="104.61 51.57 106.09 25.92 102.1 25.71 100.61 51.57 104.61 51.57"/></g><g id="Tekst"><line class="cls-7" x1="74.9" y1="153.31" x2="74.9" y2="199.79"/><line class="cls-7" x1="83.7" y1="172.52" x2="74.9" y2="179.71"/><line class="cls-7" x1="79.69" y1="150.97" x2="74.9" y2="154.88"/><line class="cls-7" x1="81.26" y1="161.65" x2="74.75" y2="166.96"/><line class="cls-7" x1="66.09" y1="172.52" x2="74.9" y2="179.71"/><line class="cls-7" x1="70.1" y1="150.97" x2="74.9" y2="154.88"/><line class="cls-7" x1="68.53" y1="161.65" x2="75.04" y2="166.96"/><line class="cls-7" x1="178.86" y1="153.31" x2="178.86" y2="199.79"/><line class="cls-7" x1="187.67" y1="172.52" x2="178.86" y2="179.71"/><line class="cls-7" x1="183.66" y1="150.97" x2="178.86" y2="154.88"/><line class="cls-7" x1="185.23" y1="161.65" x2="178.72" y2="166.96"/><line class="cls-7" x1="170.05" y1="172.52" x2="178.86" y2="179.71"/><line class="cls-7" x1="174.06" y1="150.97" x2="178.86" y2="154.88"/><line class="cls-7" x1="172.49" y1="161.65" x2="179.01" y2="166.96"/><path class="cls-2" d="M49.55,126.47h0c-9.07,0-16.3-7-15.87-15.34L35,86.2c.37-7,6.67-12.58,14.32-12.58h.52c7.65,0,14,5.53,14.32,12.58l1.29,24.93C65.85,119.48,58.62,126.47,49.55,126.47Z"/><line class="cls-8" x1="49.66" y1="87.31" x2="49.66" y2="142.25"/><line class="cls-8" x1="59.89" y1="112.34" x2="49.66" y2="120.7"/><line class="cls-8" x1="55.72" y1="92.24" x2="49.66" y2="97.19"/><line class="cls-8" x1="41.31" y1="107.41" x2="49.66" y2="113.86"/><path class="cls-9" d="M102.42,126.09h0c-9.07,0-16.3-7-15.87-15.34l1.29-24.93c.36-7,6.66-12.58,14.31-12.58h.53c7.65,0,13.95,5.54,14.31,12.58l1.29,24.93C118.71,119.1,111.49,126.09,102.42,126.09Z"/><line class="cls-8" x1="102.52" y1="86.94" x2="102.52" y2="141.87"/><line class="cls-8" x1="112.76" y1="111.96" x2="102.52" y2="120.32"/><line class="cls-8" x1="108.59" y1="91.87" x2="102.52" y2="96.81"/><line class="cls-8" x1="94.18" y1="107.03" x2="102.52" y2="113.48"/><path class="cls-1" d="M157.4,126.47h0c-9.07,0-16.3-7-15.86-15.34l1.28-24.93c.37-7,6.67-12.58,14.32-12.58h.52c7.66,0,14,5.53,14.32,12.58l1.29,24.93C173.7,119.48,166.47,126.47,157.4,126.47Z"/><line class="cls-8" x1="157.51" y1="87.31" x2="157.51" y2="142.25"/><line class="cls-8" x1="167.75" y1="112.34" x2="157.51" y2="120.7"/><line class="cls-8" x1="163.57" y1="92.24" x2="157.51" y2="97.19"/><line class="cls-8" x1="149.16" y1="107.41" x2="157.51" y2="113.86"/><path class="cls-9" d="M46.38,160a8,8,0,0,0,1.41-5.07c-.25-3.15-2.45-5.78-5.61-7.21a10.56,10.56,0,0,0-12.25-14.17,7.38,7.38,0,0,0-14.54,1.82,5.32,5.32,0,0,0,0,.69A9.81,9.81,0,0,0,7.2,149.79a10.22,10.22,0,0,0-1.64.85,10.48,10.48,0,0,0-3.5,13.81A13.12,13.12,0,0,0,23.5,179.21c.08.09.15.18.23.26,6.1,6.1,15.79,6.3,21.63.45A15.19,15.19,0,0,0,46.38,160Z"/><line class="cls-10" x1="24.83" y1="150.3" x2="24.83" y2="199.79"/><line class="cls-11" x1="19.77" y1="146.46" x2="25.22" y2="151.9"/><line class="cls-11" x1="29.89" y1="146.46" x2="24.45" y2="151.9"/><line class="cls-11" x1="36.02" y1="167.39" x2="24.83" y2="176.8"/><line class="cls-11" x1="15.76" y1="157.62" x2="24.45" y2="165.43"/><path class="cls-12" d="M150.11,160a8,8,0,0,0,1.41-5.07c-.25-3.15-2.45-5.78-5.61-7.21a10.56,10.56,0,0,0-12.25-14.17,7.38,7.38,0,0,0-14.54,1.82,5.32,5.32,0,0,0,0,.69,9.81,9.81,0,0,0-8.23,13.73,10.22,10.22,0,0,0-1.64.85,10.48,10.48,0,0,0-3.5,13.81,13.12,13.12,0,0,0,21.44,14.76c.08.09.15.18.23.26,6.1,6.1,15.79,6.3,21.63.45A15.19,15.19,0,0,0,150.11,160Z"/><line class="cls-10" x1="128.56" y1="150.3" x2="128.56" y2="199.79"/><line class="cls-11" x1="123.5" y1="146.46" x2="128.95" y2="151.9"/><line class="cls-11" x1="133.62" y1="146.46" x2="128.18" y2="151.9"/><line class="cls-11" x1="139.75" y1="167.39" x2="128.56" y2="176.8"/><line class="cls-11" x1="119.49" y1="157.62" x2="128.18" y2="165.43"/></g><g id="Laag_12" data-name="Laag 12"><path class="cls-1" d="M90.17,47.06a8,8,0,0,0,.51-2.78V37.91H81.1l-.25,0a44.34,44.34,0,0,0-5.55-8.38,43.14,43.14,0,0,0-5.6,8.53c-.3,0-.61-.06-.92-.06H59.35v6.27a7.88,7.88,0,0,0,.54,2.84H52.33v9.06a11.29,11.29,0,0,0,11.1,11.28,4.78,4.78,0,0,0-.08.76v3.92h5.91a4.8,4.8,0,0,0,4.79-4.6h2.07a4.8,4.8,0,0,0,4.79,4.6h5.91V68.23a5.82,5.82,0,0,0-.07-.73A11.36,11.36,0,0,0,97.17,56.18V47.06Z"/><line class="cls-13" x1="75.54" y1="83.45" x2="75.54" y2="49.52"/><line class="cls-13" x1="67.89" y1="58.56" x2="75.54" y2="64.56"/><line class="cls-13" x1="82.52" y1="53.24" x2="75.54" y2="58.56"/><path class="cls-12" d="M146,47.06a8,8,0,0,0,.51-2.78V37.91h-9.58l-.25,0a44.34,44.34,0,0,0-5.55-8.38,43.14,43.14,0,0,0-5.6,8.53c-.3,0-.61-.06-.92-.06h-9.43v6.27a7.88,7.88,0,0,0,.54,2.84h-7.56v9.06a11.29,11.29,0,0,0,11.1,11.28,4.78,4.78,0,0,0-.08.76v3.92H125a4.79,4.79,0,0,0,4.79-4.6h2.07a4.8,4.8,0,0,0,4.79,4.6h5.91V68.23a5.82,5.82,0,0,0-.07-.73A11.36,11.36,0,0,0,153,56.18V47.06Z"/><line class="cls-13" x1="131.32" y1="83.45" x2="131.32" y2="49.52"/><line class="cls-13" x1="123.67" y1="58.56" x2="131.32" y2="64.56"/><line class="cls-13" x1="138.3" y1="53.24" x2="131.32" y2="58.56"/></g></svg>