<?xml version="1.0" encoding="UTF-8" ?><svg xmlns="http://www.w3.org/2000/svg" viewBox="0 0 100 100"><defs><style>.cls-1{fill:#fff;}.cls-2{fill:#6bc62a;}.cls-3{fill:#24b964;}.cls-4{fill:#3a4147;}.cls-5{fill:none;stroke:#3a4147;stroke-miterlimit:10;stroke-width:0.52px;}</style></defs><g id="Laag_12" data-name="Laag 12"><circle class="cls-1" cx="50" cy="50" r="50"/><path class="cls-2" d="M18.4,16.82H49.45A30.44,30.44,0,0,1,79.89,47.26V78.32a0,0,0,0,1,0,0H49.35a31,31,0,0,1-31-31V16.82a0,0,0,0,1,0,0Z" transform="translate(80.53 -13.2) rotate(73.25)"/><path class="cls-3" d="M28.56,85.87l-8.8-29.24A31,31,0,0,1,40.48,18.07l29.24-8.8"/><path class="cls-4" d="M47.36,40.53A8.44,8.44,0,0,1,38.92,49H13.17a6.83,6.83,0,1,1,3.28-13.13c0-.16,0-.32,0-.49a10.05,10.05,0,0,1,19.71-2.79,8.46,8.46,0,0,1,11.21,8Z"/><path class="cls-1" d="M23.22,36.19a4.37,4.37,0,0,1,2.81,1l-.72,1.32a3.24,3.24,0,0,0-2.08-.76,2.49,2.49,0,1,0,0,5A3.24,3.24,0,0,0,25.31,42L26,43.27a4.37,4.37,0,0,1-2.81,1,4,4,0,1,1,0-8.07Z"/><path class="cls-1" d="M30.61,36.19a4,4,0,1,1-4.07,4A4.05,4.05,0,0,1,30.61,36.19Zm0,6.48a2.45,2.45,0,1,0-2.36-2.45A2.36,2.36,0,0,0,30.61,42.67Z"/><path class="cls-1" d="M37,44.32a7.26,7.26,0,0,1,.8,0H39.3v.9H35.55l-.11-.68,1.94-1.79a1.67,1.67,0,0,0,.69-1.08.71.71,0,0,0-.8-.73.77.77,0,0,0-.85.79H35.36A1.75,1.75,0,0,1,37.27,40a1.68,1.68,0,0,1,1.88,1.65,2.51,2.51,0,0,1-1.07,1.81Z"/><line class="cls-5" x1="57.8" y1="43.38" x2="75.19" y2="37.96"/><polygon class="cls-4" points="59.3 45.64 54.22 44.5 57.75 40.67 59.3 45.64"/><line class="cls-5" x1="50.97" y1="57.11" x2="75.81" y2="50.23"/><polygon class="cls-4" points="52.4 59.41 47.36 58.11 51.01 54.4 52.4 59.41"/><line class="cls-5" x1="65.4" y1="28.98" x2="73.2" y2="26.43"/><polygon class="cls-4" points="66.94 31.21 61.85 30.14 65.32 26.27 66.94 31.21"/><line class="cls-5" x1="43.44" y1="70.5" x2="71.87" y2="62.28"/><polygon class="cls-4" points="44.89 72.79 39.84 71.54 43.45 67.79 44.89 72.79"/></g></svg>