<?xml version="1.0" encoding="UTF-8" ?><svg xmlns="http://www.w3.org/2000/svg" viewBox="0 0 100 100"><defs><style>.cls-1{fill:#3a4147;}.cls-2,.cls-4,.cls-5{fill:none;stroke:#3a4147;stroke-miterlimit:10;}.cls-2{stroke-width:2.33px;}.cls-3{fill:#24b964;}.cls-4{stroke-width:4.43px;}.cls-5{stroke-width:3.69px;}</style></defs><g id="Laag_12" data-name="Laag 12"><circle class="cls-1" cx="14.54" cy="95.49" r="4.5"/><circle class="cls-1" cx="28.23" cy="95.49" r="4.5"/><circle class="cls-1" cx="41.46" cy="95.49" r="4.5"/><circle class="cls-1" cx="56.43" cy="95.49" r="4.5"/><circle class="cls-1" cx="70.21" cy="95.49" r="4.5"/><circle class="cls-1" cx="83.43" cy="95.49" r="4.5"/><path class="cls-2" d="M27.84,87.29V75a4,4,0,0,1,4-4H66a4,4,0,0,1,4,4V87.29"/><path class="cls-2" d="M14.54,87.29v-5.2a4,4,0,0,1,4-4H37.65a4,4,0,0,1,4,4v5.2"/><path class="cls-2" d="M56.35,87.29V82.65a4,4,0,0,1,4-4H79.46a4,4,0,0,1,4,4v4.64"/><path class="cls-3" d="M71.14,32.66a8.06,8.06,0,0,0,1.44-5.17c-.25-3.22-2.5-5.9-5.72-7.36A10.77,10.77,0,0,0,54.36,5.68,7.53,7.53,0,0,0,39.53,7.53c0,.24,0,.48,0,.71a10,10,0,0,0-8.39,14,10.3,10.3,0,0,0-1.68.87A10.68,10.68,0,0,0,25.94,37.2,13.38,13.38,0,0,0,47.81,52.26c.08.08.15.17.23.26,6.22,6.22,16.1,6.43,22.07.46A15.48,15.48,0,0,0,71.14,32.66Z"/><line class="cls-4" x1="49.16" y1="22.77" x2="49.16" y2="71.19"/><line class="cls-5" x1="44" y1="18.84" x2="49.56" y2="24.4"/><line class="cls-5" x1="54.33" y1="18.84" x2="48.77" y2="24.4"/><line class="cls-5" x1="60.58" y1="40.2" x2="49.16" y2="49.79"/><line class="cls-5" x1="39.91" y1="30.23" x2="48.77" y2="38.2"/></g></svg>