<?xml version="1.0" encoding="UTF-8" ?><svg xmlns="http://www.w3.org/2000/svg" viewBox="0 0 100 100"><defs><style>.cls-1{isolation:isolate;}.cls-2{fill:#3a4147;}.cls-3{fill:#24b964;}.cls-4{fill:#66d400;}.cls-5,.cls-8{fill:#999;}.cls-5,.cls-7{mix-blend-mode:multiply;}.cls-6{fill:#fff;}</style></defs><g class="cls-1"><g id="Laag_12" data-name="Laag 12"><path class="cls-2" d="M39.54,17.43a16.37,16.37,0,0,0,5.91-2.51S33.12,20.94,15.8.72L12.46,5.6c6.07,4.15,11.94,8.78,17.87,10.92h0l.32.11.39.13c12.71,4.16,14.14,11.55,14.14,11.55a14.58,14.58,0,0,0-5.64-10.88Z"/><path class="cls-3" d="M19.67,38.53H45.38a25.2,25.2,0,0,1,25.2,25.2V89.45a0,0,0,0,1,0,0H45.31A25.63,25.63,0,0,1,19.67,63.82V38.53a0,0,0,0,1,0,0Z" transform="translate(58.47 -13.17) rotate(45)"/><path class="cls-4" d="M45.13,28,63.31,46.17a25.2,25.2,0,0,1,0,35.64L45.13,100"/><path class="cls-5" d="M28.44,69.16l3.94-1.76H33.7V78.29H31.33V70.11c-.71.31-1.72.62-2.3.87Z"/><path class="cls-5" d="M41.81,73.56h-.07a3,3,0,0,1-2.41,1.09,3.8,3.8,0,0,1-4-3.67c0-2.16,1.75-3.75,4.3-3.75,2.8,0,4.56,2.19,4.56,5.37s-1.62,5.86-4.81,5.86a5,5,0,0,1-3.8-1.6L37,75.57a3.12,3.12,0,0,0,2.29.89A2.79,2.79,0,0,0,41.81,73.56Zm-.14-2.47a2,2,0,0,0-4-.1,1.79,1.79,0,0,0,2,1.83A1.78,1.78,0,0,0,41.67,71.09Z"/><path class="cls-5" d="M51.94,73.56h-.06a3,3,0,0,1-2.42,1.09,3.8,3.8,0,0,1-4-3.67c0-2.16,1.75-3.75,4.3-3.75,2.8,0,4.56,2.19,4.56,5.37s-1.62,5.86-4.81,5.86a5,5,0,0,1-3.8-1.6l1.42-1.29a3.12,3.12,0,0,0,2.29.89A2.78,2.78,0,0,0,51.94,73.56Zm-.14-2.47a2,2,0,0,0-4-.1,2,2,0,0,0,4,.1Z"/><path class="cls-5" d="M62.07,73.56H62a3,3,0,0,1-2.42,1.09,3.8,3.8,0,0,1-4-3.67c0-2.16,1.75-3.75,4.3-3.75,2.8,0,4.56,2.19,4.56,5.37s-1.62,5.86-4.81,5.86a5,5,0,0,1-3.8-1.6l1.42-1.29a3.12,3.12,0,0,0,2.29.89A2.78,2.78,0,0,0,62.07,73.56Zm-.14-2.47a2,2,0,0,0-4-.1,2,2,0,0,0,4,.1Z"/><path class="cls-3" d="M51.36.06H66.55A14.89,14.89,0,0,1,81.44,15V30.14a0,0,0,0,1,0,0H66.5A15.14,15.14,0,0,1,51.36,15V.06a0,0,0,0,1,0,0Z" transform="translate(8.77 51.37) rotate(-45)"/><path class="cls-4" d="M45.13,15.1,55.87,4.36a14.9,14.9,0,0,1,21.06,0L87.67,15.1"/><path class="cls-6" d="M26.93,68.55l3.94-1.76h1.32v10.9H29.83V69.5c-.72.31-1.73.62-2.31.87Z"/><path class="cls-6" d="M40.3,73h-.06a3,3,0,0,1-2.42,1.09,3.8,3.8,0,0,1-4-3.68c0-2.16,1.75-3.75,4.3-3.75,2.8,0,4.56,2.2,4.56,5.37s-1.62,5.87-4.81,5.87a5,5,0,0,1-3.8-1.6L35.49,75a3.08,3.08,0,0,0,2.29.89A2.78,2.78,0,0,0,40.3,73Zm-.14-2.48a2,2,0,0,0-4-.09,1.79,1.79,0,0,0,2,1.82A1.78,1.78,0,0,0,40.16,70.48Z"/><path class="cls-6" d="M50.43,73h-.06A3,3,0,0,1,48,74.05a3.79,3.79,0,0,1-4-3.68c0-2.16,1.74-3.75,4.29-3.75,2.8,0,4.56,2.2,4.56,5.37S51.19,77.86,48,77.86a5,5,0,0,1-3.8-1.6L45.62,75a3.08,3.08,0,0,0,2.29.89A2.77,2.77,0,0,0,50.43,73Zm-.14-2.48a2,2,0,0,0-4-.09,2,2,0,0,0,4,.09Z"/><path class="cls-6" d="M60.56,73H60.5a3,3,0,0,1-2.41,1.09,3.8,3.8,0,0,1-4-3.68c0-2.16,1.74-3.75,4.29-3.75,2.8,0,4.56,2.2,4.56,5.37s-1.62,5.87-4.81,5.87a5,5,0,0,1-3.8-1.6L55.75,75a3.08,3.08,0,0,0,2.29.89A2.77,2.77,0,0,0,60.56,73Zm-.14-2.48a2,2,0,0,0-4-.09,2,2,0,0,0,4,.09Z"/><g class="cls-7"><path class="cls-8" d="M30.43,58.31A1.48,1.48,0,0,0,32,59.46c.66,0,1.26-.24,1.26-.86,0-.33-.18-.63-1-.9l-.91-.31c-1.86-.64-2.14-1.8-2.14-2.5,0-1.51,1.19-2.45,2.83-2.45a2.86,2.86,0,0,1,2.81,1.84L33.32,55a1.33,1.33,0,0,0-1.3-.95c-.57,0-1,.23-1,.78,0,.21.06.61.9.9l.89.31c1.88.59,2.22,1.71,2.23,2.48,0,1.76-1.53,2.54-3,2.54a3,3,0,0,1-3.24-2.47Z"/><path class="cls-8" d="M38.25,61H36.39V52.58h1.86Z"/><path class="cls-8" d="M41.94,55.86V61H40.08V52.58h1.43l3.69,5.06V52.58h1.86V61H45.65Z"/><path class="cls-8" d="M53,52.44a4.66,4.66,0,0,1,3,1.06l-.77,1.42A3.47,3.47,0,0,0,53,54.1a2.68,2.68,0,1,0,0,5.35,3.47,3.47,0,0,0,2.23-.82L56,60.05a4.71,4.71,0,0,1-3,1.05,4.34,4.34,0,1,1,0-8.66Z"/><path class="cls-8" d="M57.14,61V52.58h5.58v1.47H59v2.06h3.23v1.48H59V59.5h3.72V61Z"/></g><path class="cls-6" d="M29.46,57.24A1.49,1.49,0,0,0,31,58.4c.66,0,1.26-.24,1.26-.87,0-.32-.18-.62-1-.9l-.92-.31c-1.85-.64-2.13-1.8-2.13-2.49,0-1.52,1.19-2.45,2.83-2.45a2.86,2.86,0,0,1,2.81,1.83L32.36,54a1.34,1.34,0,0,0-1.3-.95c-.58,0-1,.23-1,.78,0,.22.06.61.9.9l.89.31c1.88.59,2.22,1.72,2.23,2.49,0,1.76-1.54,2.54-3,2.54a3,3,0,0,1-3.24-2.47Z"/><path class="cls-6" d="M37.29,59.91H35.43v-8.4h1.86Z"/><path class="cls-6" d="M41,54.8v5.09H39.12V51.51h1.42l3.7,5.06V51.51H46.1v8.4H44.68Z"/><path class="cls-6" d="M52,51.38a4.67,4.67,0,0,1,3,1l-.77,1.42A3.47,3.47,0,0,0,52,53a2.68,2.68,0,1,0,0,5.35,3.46,3.46,0,0,0,2.23-.81L55,59A4.62,4.62,0,0,1,52,60a4.34,4.34,0,1,1,0-8.66Z"/><path class="cls-6" d="M56.18,59.91v-8.4h5.57V53H58v2.06h3.22v1.47H58v1.91h3.71v1.48Z"/></g></g></svg>